<?xml version="1.0" encoding="UTF-8"?>
<svg version="1.1" xmlns="http://www.w3.org/2000/svg" width="1198" height="1225">
<path d="M0 0 C3.07448738 0.02175036 6.14880144 0.02083796 9.22335243 0.02000332 C32.55663105 0.02140613 55.59510903 0.9446337 78.60742188 5.07873535 C79.71079391 5.27339386 79.71079391 5.27339386 80.8364563 5.47198486 C154.72984288 18.57266221 224.60881315 50.40630893 282.35742188 98.39123535 C282.92847656 98.86174316 283.49953125 99.33225098 284.08789062 99.8170166 C296.80978028 110.30275463 308.68016956 121.63649753 320.35742188 133.26623535 C321.14648926 134.05062988 321.93555664 134.83502441 322.74853516 135.64318848 C327.49048065 140.39824162 331.99033604 145.29162334 336.35742188 150.39123535 C337.31849427 151.48601109 338.28068117 152.57980976 339.24414062 153.67248535 C400.21931426 223.45518407 438.81513387 318.23510473 442.60742188 467.26623535 C438.91581616 520.06162586 426.49314736 571.27117721 404.35742188 619.39123535 C403.92703613 620.33563477 403.49665039 621.28003418 403.05322266 622.25305176 C387.31029174 656.64000246 367.10091419 689.51890204 342.21459961 718.09484863 C340.35676401 720.22872411 338.52206255 722.37881216 336.70849609 724.55041504 C329.81864693 732.76825066 322.5496199 740.48393278 314.92871094 748.02575684 C313.08914728 749.84682622 311.25795046 751.67601039 309.42773438 753.50646973 C303.57499458 759.34212844 297.70319512 765.086851 291.35742188 770.39123535 C290.7323877 770.9230542 290.10735352 771.45487305 289.46337891 772.00280762 C217.73818101 832.7858016 128.4040307 869.11613016 -30.06518555 875.44396973 C-111.57085196 868.19850221 -188.51258356 839.53864998 -254.64257812 791.39123535 C-255.3191748 790.90155273 -255.99577148 790.41187012 -256.69287109 789.90734863 C-266.1877814 783.01291173 -275.21129065 775.71195546 -283.9609375 767.89367676 C-285.44687311 766.56608562 -286.94245299 765.24930618 -288.43945312 763.9342041 C-295.09789966 757.97816594 -301.4522501 751.70915613 -307.79150391 745.4175415 C-308.79957891 744.41750454 -309.80912984 743.41895267 -310.8203125 742.42205811 C-316.8197577 736.49845703 -322.45479555 730.41345781 -327.69921875 723.80212402 C-329.54049339 721.51787942 -331.46032574 719.35407952 -333.45507812 717.20373535 C-395.98040724 647.38790343 -432.49050181 545.56761411 -432.82788086 442.13830566 C-432.82779995 439.32118257 -432.83470075 436.50422332 -432.84838867 433.68713379 C-432.95542671 411.26648087 -432.72023665 388.79588237 -428.45507812 366.70373535 C-428.24004639 365.55550293 -428.02501465 364.40727051 -427.8034668 363.22424316 C-414.69894383 294.86809303 -388.76499143 229.56030149 -345.64257812 174.39123535 C-344.78547706 173.27820832 -343.9287235 172.16491363 -343.07226562 171.0513916 C-329.91825934 154.03830859 -315.56246324 138.24438082 -300.39257812 123.01623535 C-299.55275391 122.17173828 -298.71292969 121.32724121 -297.84765625 120.45715332 C-292.93992226 115.56202813 -287.91511795 110.88941579 -282.64257812 106.39123535 C-281.67835938 105.54561035 -280.71414063 104.69998535 -279.72070312 103.82873535 C-223.17720071 55.09510896 -154.21295721 22.82170171 -81.39257812 7.51623535 C-80.16659912 7.25431396 -78.94062012 6.99239258 -77.67749023 6.72253418 C-73.34395154 5.85482427 -69.0053149 5.09556534 -64.64257812 4.39123535 C-63.59286835 4.22045471 -62.54315857 4.04967407 -61.4616394 3.87371826 C-40.89163987 0.63041698 -20.79312962 -0.18527653 0 0 Z M-44.64257812 99.39123535 C-45.71991211 99.5628418 -46.79724609 99.73444824 -47.90722656 99.91125488 C-102.17125974 108.67336933 -153.39690516 129.69980199 -197.64257812 162.39123535 C-198.22056152 162.81614258 -198.79854492 163.2410498 -199.39404297 163.67883301 C-212.7465299 173.54942326 -225.08140407 184.48666009 -236.64257812 196.39123535 C-239.07722483 198.84105119 -241.52304487 201.27526435 -244.00195312 203.68029785 C-250.03275829 209.57314342 -255.45828422 215.74947014 -260.64257812 222.39123535 C-261.13661133 223.01949219 -261.63064453 223.64774902 -262.13964844 224.29504395 C-269.77758959 234.03190807 -277.01738176 243.9366416 -283.64257812 254.39123535 C-284.00770508 254.9645459 -284.37283203 255.53785645 -284.74902344 256.12854004 C-309.14380114 294.74448861 -325.14552617 337.70248166 -332.89257812 382.64123535 C-333.04388184 383.51376953 -333.19518555 384.38630371 -333.35107422 385.28527832 C-336.1079695 402.40918045 -337.02476618 419.5692669 -336.95507812 436.89123535 C-336.95325531 437.84246277 -336.9514325 438.79369019 -336.94955444 439.77374268 C-336.72393229 510.18108448 -314.91338416 579.20479196 -273.64257812 636.39123535 C-272.88678467 637.44431885 -272.88678467 637.44431885 -272.11572266 638.51867676 C-262.84163716 651.37202207 -252.80498473 663.55871735 -241.42382812 674.60998535 C-239.64257813 676.39123535 -239.64257813 676.39123535 -237.58007812 679.01623535 C-235.22356384 681.90486577 -232.53598022 684.16414239 -229.70507812 686.57873535 C-227.81688926 688.23805284 -226.07264448 689.95664722 -224.33007812 691.76623535 C-204.58693596 711.68487211 -179.29493721 727.32582105 -154.64257812 740.39123535 C-153.98999023 740.73750977 -153.33740234 741.08378418 -152.66503906 741.44055176 C-101.24493464 768.4683924 -45.54776254 780.5727965 12.35742188 779.39123535 C13.43523926 779.37189941 14.51305664 779.35256348 15.62353516 779.3326416 C106.50481325 777.48650959 190.02775716 737.73292419 253.38867188 673.45373535 C256.49800123 670.1963427 259.43963673 666.82007859 262.35742188 663.39123535 C263.14503906 662.49275879 263.93265625 661.59428223 264.74414062 660.6685791 C318.53594331 598.87974849 346.55745672 519.27294727 346.60742188 437.76623535 C346.60809662 436.77223724 346.60877136 435.77823914 346.60946655 434.75411987 C346.52741366 358.36748163 320.09522037 280.96345632 270.35742188 222.39123535 C269.82777832 221.76297852 269.29813477 221.13472168 268.75244141 220.48742676 C263.33640026 214.0841107 257.87242619 207.83681615 251.90185547 201.94274902 C250.1788426 200.21183742 248.5981932 198.40025717 247.04492188 196.51623535 C243.62489842 192.55419925 239.86384177 189.11272634 235.93554688 185.6607666 C234.30116358 184.22201403 232.68407768 182.76316775 231.09179688 181.2779541 C223.31532623 174.04372036 214.86404395 167.72981565 206.35742188 161.39123535 C205.75913574 160.94103027 205.16084961 160.4908252 204.54443359 160.02697754 C163.00563432 128.86388181 113.14535367 109.30398112 62.16992188 100.64123535 C60.42787476 100.34322021 60.42787476 100.34322021 58.65063477 100.03918457 C40.53879594 97.11026946 22.50292205 96.0072735 4.16992188 96.07873535 C3.18985168 96.08055817 2.20978149 96.08238098 1.20001221 96.08425903 C-14.28192863 96.13254082 -29.34632449 96.83187199 -44.64257812 99.39123535 Z " fill="#FEFEFE" transform="translate(434.642578125,0.6087646484375)"/>
<path d="M0 0 C3.13202158 1.39040023 5.25709367 3.00735375 7.6741991 5.42531013 C8.3919425 6.13845473 9.10968589 6.85159933 9.84917909 7.58635437 C10.63039729 8.37271613 11.41161548 9.15907789 12.21650696 9.9692688 C13.05211393 10.80246136 13.8877209 11.63565391 14.7486493 12.49409473 C17.06706606 14.80784657 19.38093537 17.12603774 21.69296205 19.44617176 C24.18774474 21.94753006 26.6882838 24.44312219 29.18811035 26.93943787 C34.08564962 31.83193271 38.97782581 36.72975686 43.86821739 41.6293952 C49.56610679 47.33767001 55.26922109 53.04071263 60.97254827 58.7435535 C71.15337871 68.92388311 81.32936814 79.10903803 91.50268555 89.296875 C101.36690797 99.17516851 111.23460883 109.04996976 121.10620117 118.92089844 C121.71352655 119.52818386 122.32085193 120.13546928 122.9465811 120.76115729 C123.55286977 121.3674056 124.15915844 121.97365392 124.7838195 122.5982734 C136.02686543 133.84062837 147.26661308 145.08627578 158.50484038 156.33344749 C162.47480601 160.30642355 166.44574208 164.27842808 170.41698647 168.25012589 C175.26282349 173.09664707 180.10675152 177.94506738 184.94835035 182.79582258 C187.41681517 185.26888636 189.88603739 187.74118019 192.35743523 190.21131325 C195.04145962 192.89484513 197.72237987 195.58144093 200.40254211 198.26882935 C201.17706815 199.04180678 201.95159418 199.8147842 202.74959069 200.61118519 C206.82199862 204.70169106 210.73095696 208.87593732 214.48578423 213.26064861 C216.81363312 215.93460518 219.30513483 218.42948853 221.82421875 220.921875 C222.62818588 221.72365173 222.62818588 221.72365173 223.44839478 222.54162598 C224.59684578 223.6863113 225.74644883 224.8298418 226.89712524 225.97229004 C228.72512179 227.78735566 230.54982956 229.60567301 232.3737793 231.42480469 C236.24636422 235.28604185 240.12287734 239.14331996 244 243 C248.49794604 247.47423005 252.99420347 251.95013069 257.48623657 256.43029785 C259.27155545 258.20920255 261.05989139 259.98503396 262.84838867 261.76074219 C267.93915321 266.82895477 272.97375976 271.8988558 277.60466003 277.39916992 C279.51151405 279.58684414 281.60841502 281.53382593 283.72949219 283.51025391 C304.05306604 302.63647964 317.98432141 334.6478213 319.27148438 362.44116211 C319.37797533 366.234567 319.37767966 370.02439756 319.33618164 373.81884766 C319.31243955 376.13088699 319.31567349 378.44177419 319.32226562 380.75390625 C319.29987566 394.21949744 317.88405486 406.87865198 313.5 419.6875 C313.15324219 420.71061279 312.80648438 421.73372559 312.44921875 422.7878418 C307.44911158 436.99861458 300.51871692 450.28194922 291 462 C290.59700684 462.50692383 290.19401367 463.01384766 289.77880859 463.53613281 C267.78091195 491.11830183 235.44078948 510.82091763 200 515 C165.459963 518.79806358 127.81289436 512.6554923 100.05224609 490.44140625 C94.32797852 485.71175625 88.77262449 480.82831688 83.55859375 475.5390625 C81.2030277 473.15087667 78.78162293 470.9098497 76.23266602 468.72998047 C72.22115907 465.24007802 68.45176266 461.56490478 64.71875 457.78125 C63.73207336 456.78889343 63.73207336 456.78889343 62.72546387 455.77648926 C59.94933442 452.98421856 57.17928463 450.18594584 54.40869141 447.38818359 C52.3683292 445.32959102 50.32485669 443.27412097 48.28125 441.21875 C47.66954956 440.59875122 47.05784912 439.97875244 46.4276123 439.33996582 C43.50218015 436.39827134 40.53733514 433.56914501 37.37917328 430.87776089 C32.47462671 426.60457649 27.89668831 422.03228348 23.30627441 417.42652893 C22.35087889 416.47157032 21.39526329 415.51683183 20.43944883 414.56229252 C17.83291741 411.95798247 15.22948967 409.35058955 12.62658739 406.74265301 C9.81188868 403.92361591 6.99427995 401.1074899 4.17703247 398.29100037 C-0.69724851 393.41724248 -5.56970241 388.54166423 -10.44090271 383.66482735 C-17.48375153 376.61383441 -24.52937625 369.56562061 -31.57567078 362.51807129 C-43.0091113 351.08244482 -54.44031916 339.64458928 -65.87011719 328.20532227 C-76.96985355 317.09639996 -88.07064488 305.98853358 -99.17285156 294.88208008 C-99.85775876 294.19691016 -100.54266595 293.51174024 -101.24832791 292.8058076 C-104.684482 289.36834843 -108.12065678 285.93090995 -111.55684185 282.49348176 C-140.04110389 253.99886134 -168.52174021 225.50061914 -197 197 C-192.8140726 192.00713127 -188.45411452 187.31111059 -183.84048462 182.71350098 C-182.7938304 181.66450678 -182.7938304 181.66450678 -181.72603166 180.59432077 C-179.40256397 178.2668853 -177.07556339 175.94301575 -174.74853516 173.61914062 C-173.0757155 171.94496505 -171.40310847 170.270577 -169.73069763 168.59599304 C-165.19787372 164.05861722 -160.66190055 159.52440207 -156.1252141 154.9908886 C-153.2890442 152.15649961 -150.45393527 149.32105109 -147.61912155 146.48530579 C-147.1476575 146.0136885 -146.67619345 145.54207122 -146.19044261 145.05616251 C-145.23248844 144.09788859 -144.27453651 143.13961244 -143.31658678 142.18133408 C-134.34501187 133.20691131 -125.37038107 124.23554955 -116.39469306 115.26524073 C-108.70507726 107.58009088 -101.01808495 99.8923251 -93.33300781 92.20263672 C-84.39506065 83.25932902 -75.45548184 74.31765744 -66.51332128 65.37856245 C-65.55838209 64.42394179 -64.60344499 63.46931905 -63.64850998 62.51469421 C-63.17874275 62.04508126 -62.70897551 61.5754683 -62.22497291 61.09162465 C-58.92604357 57.79355614 -55.62829575 54.49430983 -52.33095169 51.19465637 C-47.88614469 46.74695375 -43.43888515 42.30171788 -38.989748 37.85834694 C-37.36032562 36.23024317 -35.73174685 34.60129458 -34.10408974 32.97142601 C-31.87619955 30.74078887 -29.64522854 28.51327763 -27.41348267 26.28649902 C-26.77552596 25.64631159 -26.13756925 25.00612416 -25.48028052 24.34653711 C-21.72167168 20.60405212 -17.84837529 17.05148404 -13.82201135 13.59818888 C-10.9169338 11.04998158 -8.20873443 8.31614967 -5.5 5.5625 C-4.96375 5.02173828 -4.4275 4.48097656 -3.875 3.92382812 C-2.58095964 2.61823383 -1.29011826 1.30947004 0 0 Z " fill="#FFFFFF" transform="translate(877,709)"/>
<path d="M0 0 C0 23.76 0 47.52 0 72 C-9.24 72.66 -18.48 73.32 -28 74 C-35.41041436 75.17625625 -42.69070829 76.38592217 -50 78 C-50.68271973 78.14663086 -51.36543945 78.29326172 -52.06884766 78.44433594 C-74.63769546 83.41625713 -95.8051807 93.89295713 -114 108 C-114.54366211 108.42120117 -115.08732422 108.84240234 -115.64746094 109.27636719 C-131.98124161 122.11775992 -144.15654036 137.34279301 -155 155 C-155.40444336 155.65403809 -155.80888672 156.30807617 -156.22558594 156.98193359 C-172.39352734 183.64806319 -178.15479024 214.717439 -183 245 C-206.43 245 -229.86 245 -254 245 C-254 184.73866052 -229.94184077 120.72109824 -188.54296875 76.75390625 C-186.75360192 74.81611268 -185.0610855 72.88772816 -183.39453125 70.8515625 C-180.25028326 67.10718887 -176.7209074 64.15218334 -173 61 C-172.07316406 60.17371094 -171.14632812 59.34742188 -170.19140625 58.49609375 C-161.72250885 51.01025374 -152.64088638 44.87683572 -143 39 C-142.11707275 38.45714355 -142.11707275 38.45714355 -141.21630859 37.90332031 C-98.52865545 11.86970634 -49.61709772 0 0 0 Z " fill="#FEFEFE" transform="translate(425,203)"/>
</svg>
